HIERARCHY
ROOT Hips
{
	OFFSET 0.000000 0.000000 0.000000
	CHANNELS 6 Xposition Yposition Zposition Xrotation Yrotation Zrotation
	JOINT LeftUpLeg_virtual
	{
		OFFSET 0.000000 0.000000 0.000000
		CHANNELS 3 Xrotation Yrotation Zrotation
		JOINT LeftUpLeg
		{
			OFFSET 11.394100 -6.187798 -0.413800
			CHANNELS 3 Xrotation Yrotation Zrotation
			JOINT LeftLeg
			{
				OFFSET 0.430247 -32.302673 3.732800
				CHANNELS 3 Xrotation Yrotation Zrotation
				JOINT LeftFoot
				{
					OFFSET -0.430247 -48.264931 -6.423300
					CHANNELS 3 Xrotation Yrotation Zrotation
					JOINT LeftToeBase
					{
						OFFSET 4.230900 -16.068199 23.438400
						CHANNELS 3 Xrotation Yrotation Zrotation
						JOINT LeftToe_End
						{
							OFFSET 4.510700 0.695400 19.974600
							CHANNELS 3 Xrotation Yrotation Zrotation
							End Site
							{
								OFFSET 0 0 0
							}
						}
					}
				}
			}
		}
	}
	JOINT RightUpLeg_virtual
	{
		OFFSET 0.000000 0.000000 0.000000
		CHANNELS 3 Xrotation Yrotation Zrotation
		JOINT RightUpLeg
		{
			OFFSET -11.333700 -6.187798 -0.413800
			CHANNELS 3 Xrotation Yrotation Zrotation
			JOINT RightLeg
			{
				OFFSET -0.430392 -32.302628 3.733000
				CHANNELS 3 Xrotation Yrotation Zrotation
				JOINT RightFoot
				{
					OFFSET 0.430392 -48.264973 -6.423500
					CHANNELS 3 Xrotation Yrotation Zrotation
					JOINT RightToeBase
					{
						OFFSET -4.230900 -16.068199 23.438400
						CHANNELS 3 Xrotation Yrotation Zrotation
						JOINT RightToe_End
						{
							OFFSET -4.510700 0.695400 19.974600
							CHANNELS 3 Xrotation Yrotation Zrotation
							End Site
							{
								OFFSET 0 0 0
							}
						}
					}
				}
			}
		}
	}
	JOINT Spine_virtual
	{
		OFFSET 0.000000 0.000000 0.000000
		CHANNELS 3 Xrotation Yrotation Zrotation
		JOINT Spine
		{
			OFFSET -0.002400 12.777504 0.315300
			CHANNELS 3 Xrotation Yrotation Zrotation
			JOINT Spine1
			{
				OFFSET -0.002067 5.816869 0.032633
				CHANNELS 3 Xrotation Yrotation Zrotation
				JOINT Spine1_split
				{
					OFFSET -0.002067 5.816869 0.032633
					CHANNELS 3 Xrotation Yrotation Zrotation
					JOINT Spine2
					{
						OFFSET -0.002067 5.816869 0.032633
						CHANNELS 3 Xrotation Yrotation Zrotation
						JOINT Neck_virtual
						{
							OFFSET 0.000000 0.000000 0.000000
							CHANNELS 3 Xrotation Yrotation Zrotation
							JOINT Neck
							{
								OFFSET -0.003700 21.199493 -0.826900
								CHANNELS 3 Xrotation Yrotation Zrotation
								JOINT Head
								{
									OFFSET 0.000000 20.442200 4.834800
									CHANNELS 3 Xrotation Yrotation Zrotation
									JOINT HeadTop_End
									{
										OFFSET 0.000000 34.668396 4.968400
										CHANNELS 3 Xrotation Yrotation Zrotation
										End Site
										{
											OFFSET 0 0 0
										}
									}
								}
							}
						}
						JOINT LeftShoulder_virtual
						{
							OFFSET 0.000000 0.000000 0.000000
							CHANNELS 3 Xrotation Yrotation Zrotation
							JOINT LeftShoulder
							{
								OFFSET 3.288150 8.794197 -1.372250
								CHANNELS 3 Xrotation Yrotation Zrotation
								JOINT LeftShoulder_split
								{
									OFFSET 3.288150 8.794197 -1.372250
									CHANNELS 3 Xrotation Yrotation Zrotation
									JOINT LeftArm
									{
										OFFSET 11.953299 -2.279007 -0.146200
										CHANNELS 3 Xrotation Yrotation Zrotation
										JOINT LeftForeArm
										{
											OFFSET 18.448900 0.000000 0.000000
											CHANNELS 3 Xrotation Yrotation Zrotation
											JOINT LeftHand
											{
												OFFSET 29.527798 0.000000 0.000000
												CHANNELS 3 Xrotation Yrotation Zrotation
												End Site
												{
													OFFSET 0 0 0
												}
											}
										}
									}
								}
							}
						}
						JOINT RightShoulder_virtual
						{
							OFFSET 0.000000 0.000000 0.000000
							CHANNELS 3 Xrotation Yrotation Zrotation
							JOINT RightShoulder
							{
								OFFSET -3.249400 8.794197 -1.372250
								CHANNELS 3 Xrotation Yrotation Zrotation
								JOINT RightShoulder_split
								{
									OFFSET -3.249400 8.794197 -1.372250
									CHANNELS 3 Xrotation Yrotation Zrotation
									JOINT RightArm
									{
										OFFSET -11.953299 -2.279007 -0.146200
										CHANNELS 3 Xrotation Yrotation Zrotation
										JOINT RightForeArm
										{
											OFFSET -18.448900 0.000000 0.000000
											CHANNELS 3 Xrotation Yrotation Zrotation
											JOINT RightHand
											{
												OFFSET -29.527802 0.000000 0.000000
												CHANNELS 3 Xrotation Yrotation Zrotation
												End Site
												{
													OFFSET 0 0 0
												}
											}
										}
									}
								}
							}
						}
					}
				}
			}
		}
	}
}
MOTION
Frames: 6
Frame Time: 0.03333333
7.933808 207.884308 62.779968 0.000000 0.000000 0.000000 8.982400 17.732790 0.261372 -37.008977 16.994651 8.860991 52.358871 -0.909880 2.240459 3.920670 -1.282312 -3.888348 0.292378 0.379519 3.995605 0.000000 0.000000 0.000000 13.505764 14.940822 -1.376413 -76.826856 4.109104 -10.584923 21.827295 5.866485 -3.967679 24.089797 14.900189 16.786288 4.280597 -0.382609 -1.422027 0.000000 0.000000 0.000000 7.856504 16.669107 0.750097 5.531279 -1.475452 -0.979821 16.684156 -3.427116 1.046247 2.002093 1.273885 0.073309 0.000000 0.000000 0.000000 15.536051 -3.251940 1.364098 -3.067768 1.536992 -7.747583 -5.253177 -7.538373 15.430244 0.000000 0.000000 0.000000 15.904507 -3.236118 1.192328 -1.141423 8.054407 5.537131 -0.009704 -0.489747 0.250047 -105.439188 -54.664787 -117.113784 0.942160 -87.587026 1.327638 0.000000 0.000000 0.000000 16.742066 -3.263475 1.371199 2.749103 13.640526 1.392276 -1.291573 0.438079 0.690787 -36.152116 41.446821 62.470891 -0.057343 54.149852 -0.939097 0.000000 0.000000 0.000000 
7.929883 202.869904 68.371918 0.000000 0.000000 0.000000 7.561920 18.496726 0.388365 -38.275417 18.014638 9.696714 51.861497 -0.481671 1.037927 7.222003 -0.273171 -6.008213 1.256067 0.432428 3.421791 0.000000 0.000000 0.000000 11.282327 15.001056 -1.098614 -74.156368 2.514139 -11.214785 25.365835 6.762957 -4.136359 25.500262 17.757705 13.591225 5.082004 0.015153 -1.270775 0.000000 0.000000 0.000000 5.901761 17.128771 1.066884 6.173423 -1.186193 -1.041171 16.751520 -2.708948 1.312186 1.440561 0.730550 0.046627 0.000000 0.000000 0.000000 16.083265 -2.485575 1.636338 -3.767321 0.781039 -7.356396 -4.431460 -8.181480 15.004235 0.000000 0.000000 0.000000 16.028372 -2.452249 1.475303 -1.129717 7.063966 5.296663 1.167074 0.694196 -0.516470 -103.476676 -54.040368 -114.767915 -11.563351 -87.199980 -10.666186 0.000000 0.000000 0.000000 17.138307 -2.454538 1.857978 2.650576 13.889411 1.899366 -1.848236 0.380317 0.021389 -39.199750 40.526241 62.483875 -0.058396 51.623581 -0.945700 0.000000 0.000000 0.000000 
7.802407 196.554413 74.157440 0.000000 0.000000 0.000000 5.533692 18.177492 0.694126 -38.650483 19.333218 10.950890 50.506534 0.020210 -0.173657 11.049657 0.841953 -7.825356 2.561056 0.696984 1.753295 0.000000 0.000000 0.000000 8.551265 14.818999 -0.803953 -69.741880 0.554043 -11.813957 27.900911 7.548057 -4.369996 28.074980 20.026591 12.585897 2.339872 0.187040 -1.696935 0.000000 0.000000 0.000000 3.971863 17.359486 1.237602 6.714381 -0.887015 -1.148713 16.634753 -2.132060 1.365993 0.640458 0.254386 0.150629 0.000000 0.000000 0.000000 16.324413 -1.872212 1.708681 -4.202320 0.217069 -7.108007 -3.655079 -8.484401 14.210004 0.000000 0.000000 0.000000 15.960597 -1.800081 1.455757 -1.056925 5.756432 5.274238 1.828312 1.669362 -0.865096 -101.266871 -52.644882 -111.696098 -11.725576 -85.542314 -10.583842 0.000000 0.000000 0.000000 17.229979 -1.706607 2.042938 2.437735 13.851911 2.135100 -1.898745 -0.076066 -0.436253 -41.783389 38.820446 63.302371 -0.171319 53.134541 -0.804846 0.000000 0.000000 0.000000 
7.839709 188.769623 80.030663 0.000000 0.000000 0.000000 2.876847 17.207205 1.355418 -37.793308 20.588927 11.829966 48.109315 -0.134334 -0.725948 15.104362 1.278456 -9.981370 3.044430 0.929196 -0.313352 0.000000 0.000000 0.000000 5.543804 14.646815 -0.257421 -63.579144 -1.677739 -12.106681 28.501068 7.794329 -4.774369 29.980788 20.652540 13.110316 -1.056785 0.030672 -1.984398 0.000000 0.000000 0.000000 1.880554 17.144835 1.668439 7.104560 -0.496786 -1.262581 16.298194 -1.640730 1.028894 0.348172 -0.066341 0.203308 0.000000 0.000000 0.000000 16.087752 -1.448434 1.381368 -4.176898 -0.004846 -7.075755 -2.611469 -8.327319 13.160210 0.000000 0.000000 0.000000 15.638953 -1.347408 0.970427 -0.936857 4.580180 5.410708 2.429529 1.801525 -0.720826 -98.967358 -51.044278 -108.253738 -7.858905 -82.626076 -6.785897 0.000000 0.000000 0.000000 16.959737 -1.124608 1.742785 2.166545 13.727936 2.100967 -1.651352 -0.607410 -0.676757 -43.251200 36.939162 64.732011 -0.230962 58.312132 -0.641998 0.000000 0.000000 0.000000 
8.070092 179.590057 85.983597 0.000000 0.000000 0.000000 -0.326120 16.230321 2.317508 -35.476716 20.994844 11.568717 43.883740 -1.067080 -0.556498 19.273607 0.812203 -12.079351 2.625819 0.968832 -2.015662 0.000000 0.000000 0.000000 2.448427 14.818826 0.638655 -56.264421 -4.137151 -12.253741 27.242928 6.464319 -5.248434 31.042882 18.307265 12.986872 -1.905627 -0.327086 -1.266865 0.000000 0.000000 0.000000 -0.252975 16.436613 2.323358 7.244371 -0.104269 -1.362174 15.720881 -1.253795 0.315395 0.426585 -0.109375 0.043057 0.000000 0.000000 0.000000 15.191140 -1.188745 0.713821 -3.425470 0.035375 -7.348079 -1.150017 -7.672470 11.994538 0.000000 0.000000 0.000000 15.101463 -1.122167 0.121642 -0.782982 3.805365 5.724903 2.122099 1.775738 -0.340717 -96.105379 -49.796239 -104.397228 -4.746946 -78.828634 -4.043901 0.000000 0.000000 0.000000 16.251472 -0.713145 1.005447 1.988700 13.640353 1.667172 -1.117928 -1.064864 -0.636950 -43.296036 35.385509 66.612806 -0.132983 65.408023 -0.563430 0.000000 0.000000 0.000000 
8.303203 169.498306 91.912788 0.000000 0.000000 0.000000 -3.591331 15.925662 3.438995 -31.734316 20.341297 10.037095 37.278650 -2.221943 -0.214562 23.261160 -0.116575 -13.620925 2.630195 0.824338 -3.226781 0.000000 0.000000 0.000000 -0.390757 15.356849 1.938962 -48.804010 -6.511633 -12.326377 24.060267 3.708386 -5.744099 32.106090 13.496339 11.739196 -0.243632 -0.696879 0.267799 0.000000 0.000000 0.000000 -2.273138 15.505518 3.083751 6.995280 0.226133 -1.432352 14.796099 -0.956978 -0.514305 0.296822 0.156652 0.059913 0.000000 0.000000 0.000000 13.555856 -1.024976 -0.085384 -1.885401 0.300313 -7.784402 0.804641 -6.620293 10.934665 0.000000 0.000000 0.000000 14.303529 -1.050401 -0.809866 -0.667770 3.698748 6.121879 1.232215 1.404481 0.431634 -92.438476 -49.387882 -100.299108 -2.394101 -75.652828 -2.350193 0.000000 0.000000 0.000000 15.100570 -0.426698 0.105889 1.968887 13.627797 0.958082 -0.366098 -1.484175 -0.388273 -41.815887 34.288076 68.454485 0.117562 71.746711 -0.644984 0.000000 0.000000 0.000000 
